<svg id="Layer_1" data-name="Layer 1" xmlns="http://www.w3.org/2000/svg" viewBox="0 0 247 247"><defs><style>.cls-1{fill:#662d91;}.cls-2{fill:#fff;}</style></defs><path class="cls-1" d="M242,121.88A119.61,119.61,0,1,1,122.4,2.26,119.73,119.73,0,0,1,242,121.88Z"/><path class="cls-2" d="M30.14,133.08c-1.08-2.07,0-3.51,2.16-4.05l1.9-.54c1.8-.45,2.88.36,4,1.89a10.64,10.64,0,0,0,8.38,3.69c4.32,0,7.56-2.52,7.56-5.94,0-2.88-2.43-4.41-5.58-5.49l-6-2.08c-6.93-2.07-11.26-5.94-11.26-12.34,0-7.75,6.13-13.51,15.14-13.51,5.49,0,10.81,1.89,13.78,7.39,1.17,2.07.09,3.69-2.07,4.14l-1.71.36c-1.9.54-3-.27-4.24-1.89a6.81,6.81,0,0,0-5.49-2.34c-4,0-6.49,2.43-6.49,5.58,0,2.88,2.61,4.42,5.23,5.23l6.48,2.16c8.65,2.7,11,8,11,12.88,0,8.65-7.57,13.6-16.39,13.6C39.6,141.82,33.2,138.85,30.14,133.08Z"/><path class="cls-2" d="M73.11,157.77V98.94a3,3,0,0,1,3.33-3.24h2.7a3,3,0,0,1,3.25,3.24v3.88c4.23-6,10.17-8.11,16.21-8.11,13.42,0,22.34,10.54,22.34,23.51s-8.92,23.6-22.34,23.6c-6,0-12-2.07-16.21-8.11v24.06A3,3,0,0,1,79.14,161h-2.7A3,3,0,0,1,73.11,157.77Zm38.55-39.55c0-8.38-5.22-15.49-14.41-15.49-8.83,0-15,6.57-15,15.49.09,8.92,6.21,15.49,15,15.49C106.44,133.71,111.66,126.69,111.66,118.22Z"/><path class="cls-2" d="M127.87,118.22a23.88,23.88,0,1,1,23.78,23.6A23.64,23.64,0,0,1,127.87,118.22Zm38.47.09c0-8.56-6.49-15.49-14.69-15.49-8,0-14.59,6.93-14.59,15.49s6.58,15.4,14.59,15.4C159.85,133.71,166.34,126.87,166.34,118.31Z"/><path class="cls-2" d="M187.23,126.51v-23.6h-5.49a1.68,1.68,0,0,1-1.8-1.89V97.5a1.62,1.62,0,0,1,1.8-1.8h5.67L189,85.34a2.74,2.74,0,0,1,2.89-2.61h1.89a2.53,2.53,0,0,1,2.7,2.79V95.7h12.34a1.62,1.62,0,0,1,1.8,1.8V101a1.68,1.68,0,0,1-1.8,1.89H196.51v24.14c0,4.86,2.34,6.75,5.23,6.75s5.31-1.62,5.31-4.86a6.81,6.81,0,0,0-.18-1.71c-.18-1.26.36-2.07,1.62-2.07h4.15a1.84,1.84,0,0,1,2.07,1.62,16.46,16.46,0,0,1,.36,3.33c0,6.76-4.87,11.71-13.51,11.71C194.35,141.82,187.23,138.13,187.23,126.51Z"/><path class="cls-2" d="M230.16,142.32a9.16,9.16,0,0,0-1.36-4l-.22-.28a4.39,4.39,0,0,0-4.68-.84,9.9,9.9,0,0,0-3.83,3.07c-.11.17-1,1.58-.42,2.61a1.7,1.7,0,0,0,.92.7,4.78,4.78,0,0,0,2,.19,4.65,4.65,0,0,1,3.26.74,4.46,4.46,0,0,1,.66.65,4.55,4.55,0,0,0,.81.78,2.54,2.54,0,0,0,2.25.08c1.15-.6.85-2.25.67-3.33a1.76,1.76,0,0,1-.06-.38Z"/><path class="cls-2" d="M224.16,133.24a2.12,2.12,0,0,0,1.11,1.18.81.81,0,0,0,.27.05,1.92,1.92,0,0,0,1.73-.75,4.53,4.53,0,0,0,1-2.19,4.43,4.43,0,0,0-.23-2.4,1.86,1.86,0,0,0-1.38-1.23,1.92,1.92,0,0,0-1.73.75,4.57,4.57,0,0,0-1,2.2A4.19,4.19,0,0,0,224.16,133.24Z"/><path class="cls-2" d="M229.6,135.7a2.39,2.39,0,0,0,.24.13,2,2,0,0,0,1.64-.18,4.3,4.3,0,0,0,1.65-1.63,3.84,3.84,0,0,0,.49-2.26,1.93,1.93,0,0,0-1-1.65,2,2,0,0,0-1.9.08,4.26,4.26,0,0,0-1.65,1.64,3.81,3.81,0,0,0-.49,2.25A2,2,0,0,0,229.6,135.7Z"/><path class="cls-2" d="M235.48,138.28a2,2,0,0,0-.28-1.81,1.85,1.85,0,0,0-1.73-.59,4.12,4.12,0,0,0-3.29,2.79,2,2,0,0,0,.28,1.81,1.77,1.77,0,0,0,.71.5,2.51,2.51,0,0,0,1,.12,4.08,4.08,0,0,0,3.3-2.82Z"/><path class="cls-2" d="M223,136.7a3.89,3.89,0,0,0,.43-2.2,4.1,4.1,0,0,0-.82-2.12,1.86,1.86,0,0,0-1.65-.8,2,2,0,0,0-1.49,1.08,3.81,3.81,0,0,0-.43,2.2,4.09,4.09,0,0,0,.81,2.12,2.23,2.23,0,0,0,1,.71,1.46,1.46,0,0,0,.7.09A2,2,0,0,0,223,136.7Z"/></svg>