<svg id="Layer_1" data-name="Layer 1" xmlns="http://www.w3.org/2000/svg" viewBox="0 0 217 83"><defs><style>.cls-1{fill:#662d91;}</style></defs><path class="cls-1" d="M3.56,53.8c-1.09-2.07,0-3.52,2.16-4.06l1.89-.54c1.8-.45,2.88.36,4.05,1.9A10.67,10.67,0,0,0,20,54.79c4.32,0,7.57-2.52,7.57-5.95,0-2.88-2.43-4.41-5.59-5.49l-6-2.07c-6.94-2.08-11.26-6-11.26-12.35,0-7.74,6.12-13.51,15.13-13.51,5.5,0,10.81,1.89,13.78,7.39,1.17,2.07.09,3.69-2.07,4.14l-1.71.36c-1.89.54-3-.27-4.23-1.89a6.85,6.85,0,0,0-5.5-2.34c-4,0-6.49,2.43-6.49,5.59,0,2.88,2.62,4.41,5.23,5.22l6.49,2.16c8.64,2.7,11,8,11,12.88,0,8.65-7.57,13.61-16.4,13.61C13,62.54,6.62,59.56,3.56,53.8Z"/><path class="cls-1" d="M46.52,78.48V19.66a3,3,0,0,1,3.33-3.25h2.71a2.94,2.94,0,0,1,3.24,3.25v3.87C60,17.49,66,15.42,72,15.42c13.43,0,22.34,10.54,22.34,23.51S85.44,62.54,72,62.54c-6,0-12-2.08-16.21-8.11V78.48a2.94,2.94,0,0,1-3.24,3.24H49.85A3,3,0,0,1,46.52,78.48ZM85.08,38.93c0-8.37-5.23-15.49-14.42-15.49-8.82,0-14.95,6.58-15,15.49.09,8.92,6.22,15.5,15,15.5C79.85,54.43,85.08,47.4,85.08,38.93Z"/><path class="cls-1" d="M101.29,38.93a23.87,23.87,0,1,1,23.78,23.61A23.64,23.64,0,0,1,101.29,38.93Zm38.46.09c0-8.55-6.48-15.49-14.68-15.49-8,0-14.6,6.94-14.6,15.49s6.58,15.41,14.6,15.41C133.27,54.43,139.75,47.58,139.75,39Z"/><path class="cls-1" d="M160.65,47.22V23.62h-5.5a1.68,1.68,0,0,1-1.8-1.89V18.21a1.62,1.62,0,0,1,1.8-1.8h5.68l1.62-10.36a2.72,2.72,0,0,1,2.88-2.61h1.89a2.54,2.54,0,0,1,2.71,2.79V16.41h12.34a1.62,1.62,0,0,1,1.8,1.8v3.52a1.68,1.68,0,0,1-1.8,1.89H169.93V47.76c0,4.87,2.34,6.76,5.22,6.76s5.32-1.62,5.32-4.87a6.47,6.47,0,0,0-.19-1.71c-.18-1.26.37-2.07,1.63-2.07h4.14a1.84,1.84,0,0,1,2.07,1.62,16.46,16.46,0,0,1,.36,3.33c0,6.76-4.86,11.72-13.51,11.72C167.76,62.54,160.65,58.84,160.65,47.22Z"/><path class="cls-1" d="M208.54,63.66A10.82,10.82,0,0,0,207,59c-.09-.13-.16-.2-.26-.33a5.13,5.13,0,0,0-5.48-1,11.57,11.57,0,0,0-4.49,3.6c-.11.19-1.19,1.84-.49,3a2,2,0,0,0,1.08.82,5.82,5.82,0,0,0,2.34.23A4.65,4.65,0,0,1,204.24,67a4.87,4.87,0,0,0,1,.92,2.91,2.91,0,0,0,2.62.09c1.35-.7,1-2.63.79-3.89a1.83,1.83,0,0,1-.07-.45Z"/><path class="cls-1" d="M201.51,53a2.45,2.45,0,0,0,1.31,1.37.78.78,0,0,0,.31.07,2.28,2.28,0,0,0,2-.88A5.46,5.46,0,0,0,206.33,51a5.29,5.29,0,0,0-.27-2.8,2.16,2.16,0,0,0-1.62-1.44,2.24,2.24,0,0,0-2,.88,5.24,5.24,0,0,0-1.17,2.56A5,5,0,0,0,201.51,53Z"/><path class="cls-1" d="M207.88,55.92a2.4,2.4,0,0,0,.28.14,2.35,2.35,0,0,0,1.92-.2A5,5,0,0,0,212,54a4.45,4.45,0,0,0,.58-2.64,2.18,2.18,0,0,0-3.37-1.84,5,5,0,0,0-1.93,1.91,4.45,4.45,0,0,0-.58,2.64A2.36,2.36,0,0,0,207.88,55.92Z"/><path class="cls-1" d="M214.76,58.93a2.28,2.28,0,0,0-.32-2.11,2.16,2.16,0,0,0-2-.69A4.38,4.38,0,0,0,210,57.21a4.25,4.25,0,0,0-1.45,2.18,2.3,2.3,0,0,0,.32,2.12,2,2,0,0,0,.83.58,3,3,0,0,0,1.19.15,4.33,4.33,0,0,0,2.38-1.09A4.25,4.25,0,0,0,214.76,58.93Z"/><path class="cls-1" d="M200.09,57.08a4.45,4.45,0,0,0,.51-2.57,4.81,4.81,0,0,0-.95-2.48,2.2,2.2,0,0,0-1.94-.94A2.3,2.3,0,0,0,196,52.36a4.45,4.45,0,0,0-.51,2.57,4.81,4.81,0,0,0,.95,2.48,2.64,2.64,0,0,0,1.13.84,1.67,1.67,0,0,0,.81.1A2.28,2.28,0,0,0,200.09,57.08Z"/></svg>