<svg width="32" height="32" viewBox="0 0 32 32" fill="none" xmlns="http://www.w3.org/2000/svg">
<path d="M14.6665 23.9998H17.3332V21.3332H14.6665V23.9998ZM15.9998 2.6665C8.63984 2.6665 2.6665 8.63984 2.6665 15.9998C2.6665 23.3598 8.63984 29.3332 15.9998 29.3332C23.3598 29.3332 29.3332 23.3598 29.3332 15.9998C29.3332 8.63984 23.3598 2.6665 15.9998 2.6665ZM15.9998 26.6665C10.1198 26.6665 5.33317 21.8798 5.33317 15.9998C5.33317 10.1198 10.1198 5.33317 15.9998 5.33317C21.8798 5.33317 26.6665 10.1198 26.6665 15.9998C26.6665 21.8798 21.8798 26.6665 15.9998 26.6665ZM15.9998 7.99984C13.0532 7.99984 10.6665 10.3865 10.6665 13.3332H13.3332C13.3332 11.8665 14.5332 10.6665 15.9998 10.6665C17.4665 10.6665 18.6665 11.8665 18.6665 13.3332C18.6665 15.9998 14.6665 15.6665 14.6665 19.9998H17.3332C17.3332 16.9998 21.3332 16.6665 21.3332 13.3332C21.3332 10.3865 18.9465 7.99984 15.9998 7.99984Z" fill="#6B648B"/>
</svg>
