<svg width="68" height="68" viewBox="0 0 68 68" fill="none" xmlns="http://www.w3.org/2000/svg">
<g filter="url(#filter0_d_355_3)">
<circle cx="34" cy="34" r="24" fill="white"/>
</g>
<path d="M32.0001 41.0002V36.0002H36.0001V41.0002C36.0001 41.5502 36.4501 42.0002 37.0001 42.0002H40.0001C40.5501 42.0002 41.0001 41.5502 41.0001 41.0002V34.0002H42.7001C43.1601 34.0002 43.3801 33.4302 43.0301 33.1302L34.6701 25.6002C34.2901 25.2602 33.7101 25.2602 33.3301 25.6002L24.9701 33.1302C24.6301 33.4302 24.8401 34.0002 25.3001 34.0002H27.0001V41.0002C27.0001 41.5502 27.4501 42.0002 28.0001 42.0002H31.0001C31.5501 42.0002 32.0001 41.5502 32.0001 41.0002Z" fill="#6B648B"/>
<defs>
<filter id="filter0_d_355_3" x="0" y="0" width="68" height="68" filterUnits="userSpaceOnUse" color-interpolation-filters="sRGB">
<feFlood flood-opacity="0" result="BackgroundImageFix"/>
<feColorMatrix in="SourceAlpha" type="matrix" values="0 0 0 0 0 0 0 0 0 0 0 0 0 0 0 0 0 0 127 0" result="hardAlpha"/>
<feOffset/>
<feGaussianBlur stdDeviation="5"/>
<feComposite in2="hardAlpha" operator="out"/>
<feColorMatrix type="matrix" values="0 0 0 0 0 0 0 0 0 0 0 0 0 0 0 0 0 0 0.25 0"/>
<feBlend mode="normal" in2="BackgroundImageFix" result="effect1_dropShadow_355_3"/>
<feBlend mode="normal" in="SourceGraphic" in2="effect1_dropShadow_355_3" result="shape"/>
</filter>
</defs>
</svg>
